<?xml version="1.0" standalone="no"?>
<!DOCTYPE svg PUBLIC "-//W3C//DTD SVG 20010904//EN"
 "http://www.w3.org/TR/2001/REC-SVG-20010904/DTD/svg10.dtd">
<svg version="1.0" xmlns="http://www.w3.org/2000/svg"
 width="496.922862pt" height="469.710359pt" viewBox="0 0 496.922862 469.710359"
 preserveAspectRatio="xMidYMid meet">
<metadata>
Created by potrace 1.12, written by Peter Selinger 2001-2015
</metadata>
<g transform="translate(-13.000000,500.895965) scale(0.100000,-0.100000)"
fill="#000000" stroke="none">
<path d="M2880 4995 c-100 -19 -267 -69 -345 -104 -68 -31 -142 -92 -156 -128
-7 -19 -14 -22 -33 -17 -67 16 -223 -107 -314 -248 -149 -231 -155 -452 -17
-592 28 -28 97 -82 155 -121 58 -38 132 -96 166 -130 59 -58 122 -150 111
-161 -3 -3 -20 1 -39 9 -18 9 -87 37 -153 63 -329 129 -424 207 -626 514 -147
223 -166 288 -148 507 10 130 1 231 -26 284 -8 15 -31 40 -51 56 -32 24 -45
27 -103 26 -117 -1 -269 -73 -360 -171 -49 -54 -111 -137 -111 -150 0 -20 -17
-13 -23 8 -7 29 -33 25 -46 -7 -8 -20 -8 -38 -1 -63 5 -19 10 -56 10 -82 0
-34 4 -48 14 -48 7 0 23 -27 36 -62 92 -255 241 -456 515 -694 128 -111 248
-229 299 -294 26 -33 45 -60 41 -60 -3 0 -33 14 -66 31 -159 80 -341 131 -550
155 -147 17 -291 -44 -435 -183 -153 -147 -265 -374 -282 -571 -9 -107 1 -227
21 -250 17 -20 82 -183 92 -231 4 -18 23 -50 42 -72 60 -67 159 -73 279 -19
39 18 193 149 259 220 46 50 97 78 208 115 154 50 264 69 376 61 52 -3 96 -8
98 -10 3 -2 -9 -44 -25 -93 -17 -48 -36 -115 -43 -148 -14 -66 -18 -351 -7
-430 l8 -50 -76 -90 c-42 -49 -110 -128 -152 -174 -43 -46 -83 -92 -89 -102
-20 -27 -160 -141 -244 -196 -199 -134 -200 -217 -3 -381 93 -77 149 -108 324
-180 80 -33 199 -83 265 -110 147 -62 235 -82 390 -89 163 -7 509 29 538 56 4
4 82 -30 172 -75 243 -120 407 -169 649 -193 266 -27 425 4 581 110 182 124
259 347 271 784 5 153 3 194 -14 271 l-19 91 89 7 c202 15 404 70 508 136 121
78 225 237 251 385 24 142 -7 435 -65 610 -57 171 -125 280 -305 493 -164 196
-268 282 -406 337 -61 25 -87 29 -195 33 -96 3 -140 0 -190 -13 -147 -38 -300
-129 -488 -290 -63 -53 -115 -95 -118 -93 -5 6 -21 91 -39 213 -14 92 -30 163
-79 350 -9 32 -16 78 -16 101 0 53 45 143 105 209 106 117 263 310 298 368 85
139 102 305 42 403 -49 79 -154 137 -307 169 -88 19 -345 18 -448 0z m474 -85
c227 -73 295 -197 216 -391 -16 -41 -40 -87 -52 -104 -32 -45 -200 -250 -274
-335 -133 -155 -149 -242 -82 -470 21 -69 44 -174 53 -235 9 -60 23 -141 31
-180 l14 -70 -32 -27 c-56 -47 -71 -46 -135 9 -65 56 -159 126 -218 164 -67
44 -264 150 -302 163 -30 10 -39 20 -56 66 -47 126 -124 211 -309 341 -124 87
-183 143 -216 204 -26 48 -23 206 6 267 12 26 22 49 22 52 0 12 87 144 114
174 45 49 150 122 176 122 20 0 22 -3 15 -37 -8 -48 -37 -92 -109 -167 -58
-61 -67 -82 -39 -93 21 -8 142 116 169 175 20 43 32 50 52 30 8 -8 15 -8 27 2
19 16 19 51 0 97 -12 29 -13 43 -4 64 27 66 213 143 484 202 11 3 95 5 187 6
161 1 172 0 262 -29z m-1970 -69 c42 -39 49 -80 44 -234 -9 -251 11 -343 114
-511 232 -381 334 -472 693 -615 222 -88 242 -98 249 -123 9 -35 7 -144 -5
-243 -6 -49 -11 -96 -12 -103 0 -10 -11 -12 -41 -7 -41 7 -350 106 -383 124
-10 5 -36 17 -58 26 -95 41 -161 87 -190 133 -83 135 -198 257 -429 458 -263
228 -392 404 -496 678 l-41 109 33 54 c74 122 169 204 298 257 86 35 185 34
224 -3z m2883 -1360 c143 -50 286 -174 462 -403 157 -204 222 -339 260 -540
68 -358 40 -541 -106 -685 -110 -109 -273 -170 -520 -195 -65 -6 -126 -9 -134
-6 -8 3 -28 39 -43 79 -84 217 -277 556 -387 679 -43 49 -202 220 -276 299
-49 52 -67 80 -84 131 -12 36 -37 105 -55 153 -19 49 -34 92 -34 96 0 10 265
234 322 273 91 62 241 128 318 141 14 2 63 5 110 6 70 1 100 -4 167 -28z
m-3075 -66 c74 -13 165 -34 203 -46 89 -27 231 -96 315 -151 57 -38 68 -50 89
-103 21 -51 25 -76 25 -165 -1 -89 -5 -119 -30 -195 l-30 -90 -129 3 c-91 3
-152 -1 -202 -12 -101 -22 -291 -84 -334 -110 -20 -11 -91 -71 -158 -133 -144
-133 -206 -168 -296 -168 -91 0 -108 15 -144 127 -16 51 -36 107 -45 123 -20
37 -20 66 -1 112 8 19 15 42 15 49 0 19 -25 18 -45 -2 -9 -9 -19 -13 -23 -9
-4 4 -7 46 -6 93 1 105 32 205 102 327 139 242 312 374 489 375 39 0 132 -11
205 -25z m1567 -167 c62 -35 213 -145 276 -201 l40 -35 -39 -17 c-73 -31 -194
-40 -347 -26 -78 7 -146 14 -153 17 -9 4 -11 18 -5 52 4 26 11 106 15 179 l7
131 75 -34 c41 -19 100 -48 131 -66z m-837 -154 c69 -36 350 -133 446 -155 56
-13 102 -26 102 -30 0 -4 -7 -6 -16 -5 -10 1 -21 -16 -33 -49 -36 -101 -135
-271 -214 -369 l-24 -30 -44 35 c-24 20 -60 45 -80 56 -48 27 -194 83 -218 83
-18 0 -17 5 12 93 28 83 31 104 32 217 0 69 -4 135 -8 148 -10 27 2 28 45 6z
m1387 -119 c12 -35 21 -67 21 -70 0 -7 -110 88 -110 95 0 6 52 39 62 40 3 0
16 -29 27 -65z m-67 -109 c160 -143 163 -148 202 -316 26 -110 35 -178 50
-365 14 -173 11 -288 -10 -414 l-7 -44 -61 7 c-34 3 -153 11 -266 16 -234 12
-352 24 -410 45 -100 35 -205 131 -309 281 -26 38 -63 92 -82 119 -49 71 -119
191 -119 205 0 6 15 30 34 53 109 134 252 412 231 448 -8 12 -4 12 138 -7 166
-22 294 -15 407 24 47 16 90 30 97 31 6 0 53 -37 105 -83z m572 -601 c79 -113
149 -229 194 -320 34 -68 122 -278 122 -289 0 -12 -80 -6 -271 20 -311 41
-376 52 -342 53 36 1 34 -3 53 136 24 175 -11 628 -55 720 -25 50 230 -222
299 -320z m-1924 262 c111 -43 179 -79 209 -111 l24 -25 -25 -33 c-14 -18 -72
-83 -129 -144 -107 -113 -212 -230 -247 -274 l-20 -25 -7 49 c-15 95 0 304 28
401 33 113 67 196 81 195 0 0 39 -15 86 -33z m350 -307 c75 -113 218 -305 252
-340 146 -148 223 -176 538 -190 341 -16 430 -25 430 -44 0 -20 -49 -185 -67
-226 -164 -378 -407 -624 -727 -735 -40 -14 -40 -14 -105 32 -237 169 -534
473 -658 673 -66 107 -102 184 -143 312 -22 67 -40 126 -40 131 0 23 440 501
450 490 4 -4 36 -51 70 -103z m-539 -547 c44 -135 127 -300 207 -413 86 -122
368 -408 512 -520 102 -79 122 -99 103 -101 -46 -4 -94 -11 -123 -18 -19 -5
-64 -9 -100 -10 -36 -1 -90 -5 -120 -9 -53 -8 -249 7 -315 23 -62 15 -178 56
-223 79 -26 13 -119 52 -207 87 -95 38 -189 83 -231 111 -69 46 -204 178 -204
199 0 33 39 73 132 135 118 79 260 215 423 407 59 70 109 127 111 127 1 0 17
-44 35 -97z m2045 -54 c109 -16 247 -33 306 -36 l107 -6 11 -31 c41 -126 51
-330 25 -526 -30 -227 -58 -323 -120 -416 -82 -124 -260 -215 -445 -227 -69
-5 -285 14 -385 33 -103 20 -272 81 -403 145 l-126 62 75 35 c90 42 223 129
297 194 189 168 377 492 433 747 7 31 15 57 19 57 4 0 96 -14 206 -31z"/>
<path d="M130 2265 c0 -8 5 -15 10 -15 6 0 10 7 10 15 0 8 -4 15 -10 15 -5 0
-10 -7 -10 -15z"/>
</g>
</svg>
